<?xml version="1.0" standalone="no"?>
<!DOCTYPE svg PUBLIC "-//W3C//DTD SVG 20010904//EN"
 "http://www.w3.org/TR/2001/REC-SVG-20010904/DTD/svg10.dtd">
<svg version="1.0" xmlns="http://www.w3.org/2000/svg"
 width="720.000000pt" height="720.000000pt" viewBox="0 0 720.000000 720.000000"
 preserveAspectRatio="xMidYMid meet">
<metadata>
Created by potrace 1.14, written by Peter Selinger 2001-2017
</metadata>
<g transform="translate(0.000000,720.000000) scale(0.100000,-0.100000)"
fill="#000000" stroke="none">
<path d="M3395 6816 c-207 -78 -319 -129 -405 -186 -30 -20 -60 -39 -66 -43
-7 -4 -9 7 -5 36 3 23 5 49 5 57 -1 8 -2 21 -3 28 -3 30 -56 2 -133 -69 -121
-111 -127 -114 -233 -114 -76 0 -98 -4 -145 -26 -73 -35 -153 -115 -187 -189
-20 -42 -34 -60 -48 -61 -37 -3 -80 -1 -165 4 -58 4 -95 1 -116 -8 -55 -23
-194 -148 -458 -411 -182 -183 -184 -185 -211 -263 -29 -86 -45 -120 -70 -151
-25 -31 -157 -163 -301 -300 -198 -189 -275 -322 -338 -590 -14 -58 -28 -118
-31 -135 -2 -16 -7 -39 -9 -51 -2 -12 -7 -45 -11 -75 -4 -30 -8 -56 -10 -59
-2 -3 -6 -30 -9 -60 -3 -30 -8 -66 -11 -80 -3 -13 -7 -42 -10 -65 -3 -22 -8
-51 -10 -65 -3 -14 -7 -35 -10 -48 -3 -19 37 -125 55 -142 12 -11 116 -245
125 -280 0 -3 11 -34 22 -70 36 -107 59 -204 69 -286 6 -47 4 -53 -16 -64 -12
-6 -30 -10 -40 -7 -24 6 -27 -3 -25 -98 2 -123 14 -165 96 -343 16 -35 29 -65
29 -67 0 -5 40 -96 73 -165 11 -25 21 -47 22 -50 1 -3 8 -21 17 -40 40 -88
142 -330 160 -380 11 -30 23 -64 28 -75 5 -11 20 -54 34 -95 19 -58 29 -76 45
-78 38 -6 88 -68 101 -125 32 -147 99 -327 121 -327 5 0 9 -6 9 -12 1 -18 58
-77 114 -116 77 -55 136 -71 287 -75 146 -4 192 -18 254 -75 65 -60 208 -111
314 -112 53 0 151 -34 151 -52 0 -4 9 -8 19 -8 11 0 22 -4 25 -8 2 -4 40 -25
83 -46 95 -48 224 -120 280 -158 48 -32 69 -35 95 -11 17 15 18 15 19 -8 1
-13 0 -37 -1 -52 l-2 -28 54 6 c29 3 64 8 78 10 37 6 166 17 240 21 36 1 67 3
70 4 11 3 170 0 240 -4 99 -6 150 -13 238 -36 41 -10 84 -16 95 -14 111 25
205 8 325 -60 96 -54 172 -55 152 -1 -9 22 -6 27 28 44 20 10 39 19 42 19 3 1
12 3 20 5 53 17 148 34 176 32 24 -1 40 -10 56 -31 39 -50 76 -84 92 -84 12 0
16 12 17 53 1 28 1 54 1 57 0 3 8 16 18 30 16 22 27 25 92 26 40 1 76 2 80 3
4 0 5 18 3 40 -2 21 -1 50 3 64 9 32 221 258 279 299 l44 30 46 -51 c63 -69
68 -68 50 14 -5 20 -46 80 -71 104 -13 13 -22 29 -19 36 11 29 183 69 197 46
3 -5 15 -11 26 -14 16 -4 18 -2 10 13 -6 10 -10 25 -10 33 0 23 60 46 133 50
37 3 74 11 83 18 22 18 41 59 47 100 5 40 11 53 38 84 89 101 224 277 249 325
7 14 16 27 20 30 39 28 280 514 306 614 3 14 10 29 15 32 12 7 12 34 0 34 -18
0 -166 -155 -204 -213 -48 -72 -81 -96 -109 -78 -11 7 -21 11 -23 9 -2 -2 -12
-32 -24 -68 l-20 -65 4 53 c2 28 1 52 -2 52 -3 0 -38 -26 -78 -57 -39 -32 -87
-69 -105 -83 -18 -14 -56 -43 -84 -65 -28 -22 -61 -47 -73 -55 -12 -8 -56 -42
-99 -75 -43 -33 -90 -68 -104 -77 -39 -26 -273 -196 -287 -207 -7 -6 -16 -11
-22 -11 -5 0 -11 -4 -13 -8 -1 -5 -43 -35 -93 -68 -49 -32 -94 -62 -100 -67
-39 -29 -116 -77 -125 -77 -5 0 -10 -4 -10 -9 0 -13 -52 -32 -90 -33 -26 -1
-39 6 -60 32 l-27 33 -41 -37 c-53 -48 -87 -47 -87 2 0 34 1 34 -72 34 -35 1
-63 -16 -63 -37 0 -7 -6 -18 -13 -24 -11 -8 -17 -5 -27 14 -16 30 -30 32 -31
5 -1 -11 -3 -24 -4 -30 -1 -5 -3 -20 -4 -32 l-2 -23 -13 24 -14 25 -26 -29
c-14 -15 -26 -33 -26 -39 0 -6 -12 7 -27 29 -14 22 -37 53 -51 70 l-25 30 7
-35 c4 -19 10 -42 12 -52 3 -9 0 -19 -6 -23 -5 -3 -10 -1 -10 5 0 28 -24 0
-27 -31 -3 -19 -11 -39 -20 -46 -8 -6 -32 -28 -53 -47 -31 -29 -48 -36 -96
-41 -33 -3 -75 -8 -94 -10 -19 -3 -55 -7 -80 -10 -25 -3 -78 -14 -118 -24 -66
-17 -78 -18 -130 -5 -88 22 -100 25 -174 39 -31 6 -63 12 -123 24 -22 5 -47 9
-55 9 -16 -1 -83 9 -135 19 -30 5 -68 9 -175 17 -92 7 -176 18 -235 31 -11 3
-29 7 -40 9 -66 14 -276 107 -337 150 -19 14 -19 14 2 21 24 8 60 60 60 88 0
21 -16 23 -24 2 -3 -8 -12 -15 -21 -15 -8 0 -15 -4 -15 -8 0 -5 -6 -9 -12 -9
-7 -1 -34 -4 -60 -8 l-48 -8 -77 76 c-43 42 -99 95 -124 119 -115 108 -214
201 -319 298 -183 170 -369 358 -523 530 -51 57 -103 155 -167 320 -19 47 -39
94 -46 105 -7 11 -13 25 -13 30 0 17 -34 85 -42 85 -5 0 -14 -6 -21 -13 -19
-21 -47 -8 -67 32 -30 59 -4 124 39 101 24 -13 31 -2 25 39 -26 164 -31 201
-41 286 -3 28 -10 67 -14 87 -12 55 -2 102 37 187 20 42 37 83 38 91 2 8 4 15
5 15 1 0 3 16 5 35 3 48 17 173 31 290 3 30 8 71 10 90 2 19 6 60 10 90 3 30
8 71 9 90 5 50 16 139 21 180 8 57 20 115 40 195 8 33 19 69 23 80 5 11 17 43
26 70 26 72 72 169 122 253 24 41 43 78 43 83 0 5 4 9 8 9 4 0 15 13 25 29 40
68 161 207 306 351 146 145 327 315 396 372 36 30 588 358 602 358 3 0 22 10
42 22 20 13 38 23 41 24 3 0 41 17 85 38 72 34 260 102 310 112 11 2 43 8 70
14 28 6 61 12 75 15 61 12 157 18 310 20 91 1 176 5 189 8 62 16 86 74 82 200
-1 37 -2 38 -32 33 -27 -4 -61 6 -79 24 -22 22 -94 72 -115 80 -39 15 -48 13
-200 -44z m-2529 -4161 c3 -15 9 -36 14 -46 18 -33 10 -42 -12 -13 -13 16 -31
38 -40 48 -21 23 -23 37 -6 54 16 16 37 -4 44 -43z m83 26 c12 -16 21 -32 21
-36 0 -4 11 -29 25 -56 13 -27 22 -49 19 -49 -3 0 4 -15 15 -34 28 -44 27 -48
-8 -28 -37 21 -57 54 -66 111 -4 24 -16 58 -26 75 -10 17 -19 34 -19 39 0 16
20 5 39 -22z"/>
<path d="M4481 6659 c-33 -4 -50 -13 -68 -35 -12 -16 -23 -32 -23 -36 0 -4
-15 -2 -32 3 -34 10 -175 10 -193 0 -5 -3 -17 -6 -25 -8 -23 -3 -70 -64 -71
-93 -4 -83 9 -108 97 -180 83 -68 235 -118 379 -123 32 -2 69 -18 156 -69 138
-81 423 -267 427 -279 2 -5 8 -9 13 -9 5 0 59 -36 120 -80 60 -44 114 -80 119
-80 4 0 10 -4 12 -8 2 -4 26 -23 53 -42 28 -19 52 -38 55 -41 3 -3 49 -36 103
-73 53 -37 103 -73 110 -79 48 -46 122 -46 200 -2 25 14 48 25 51 25 2 0 5
-34 5 -76 0 -60 8 -97 37 -182 62 -181 87 -220 187 -289 101 -70 142 -214 98
-346 -13 -37 -11 -42 24 -110 61 -117 125 -205 194 -269 47 -43 66 -68 67 -86
1 -15 2 -35 3 -44 1 -17 27 -48 40 -48 4 0 18 9 31 20 13 11 24 19 25 18 2 -2
-3 -46 -10 -98 -12 -94 -17 -306 -8 -341 9 -32 18 -21 19 24 2 46 13 168 19
196 2 10 6 42 10 72 4 30 9 57 11 60 2 3 6 19 8 35 11 60 43 181 55 209 5 11
12 28 15 38 10 31 -30 1 -64 -48 -50 -72 -60 -62 -61 58 -1 114 -3 155 -13
248 -4 35 -9 84 -11 109 -2 25 -6 59 -9 75 -3 17 -8 55 -11 85 -3 30 -8 66
-10 80 -2 14 -6 48 -10 75 -3 28 -7 60 -10 73 -2 12 -53 100 -112 194 -59 95
-112 180 -118 189 -5 9 -25 40 -43 70 -58 95 -251 404 -259 415 -4 5 -13 19
-20 30 -150 247 -282 378 -548 541 -74 45 -337 163 -364 163 -6 0 -19 4 -29 9
-9 6 -30 13 -47 17 -16 4 -32 8 -35 9 -59 18 -96 26 -145 31 -76 9 -336 11
-394 3z"/>
<path d="M3282 5478 c-5 -7 -11 -22 -13 -32 -2 -10 -11 -22 -19 -26 -47 -22
-55 -29 -58 -53 -2 -20 -11 -29 -30 -33 -45 -11 -52 -23 -52 -83 0 -59 -11
-81 -41 -81 -25 0 -33 -17 -39 -84 -4 -43 -10 -61 -22 -67 -10 -5 -26 -13 -35
-18 -14 -6 -19 -23 -21 -67 -3 -65 -14 -84 -47 -84 -30 0 -35 -16 -35 -110 0
-91 -11 -130 -39 -130 -29 0 -40 -21 -43 -84 -2 -44 -7 -61 -20 -67 -57 -28
-53 -8 -56 -253 l-2 -227 -30 -5 c-16 -4 -34 -12 -40 -19 -7 -8 -10 -67 -8
-156 l3 -144 25 -3 c41 -5 50 -28 50 -126 0 -101 4 -112 39 -117 13 -2 27 -11
31 -19 27 -58 20 -55 130 -55 88 0 104 3 111 18 5 9 13 25 18 35 4 9 18 18 30
20 21 3 22 0 17 -27 -3 -17 -9 -44 -12 -60 -5 -27 -8 -29 -30 -20 -57 21 -151
3 -197 -39 -39 -35 -74 -147 -82 -262 -2 -33 22 -83 47 -99 53 -33 161 -21
197 23 11 13 16 12 36 -12 20 -24 30 -27 82 -27 78 1 99 16 98 75 0 44 -1 45
-29 42 l-29 -4 7 49 c12 77 13 87 15 106 1 12 9 17 29 17 32 0 52 -16 52 -41
0 -9 6 -22 14 -28 11 -9 13 -26 9 -66 -11 -105 29 -144 155 -151 132 -7 218
39 243 129 12 45 13 50 24 115 4 26 12 42 21 42 11 0 14 16 14 69 0 68 6 83
38 87 21 4 42 25 42 43 0 24 20 41 46 41 25 0 31 14 33 79 2 54 16 81 40 81
21 0 37 17 42 44 2 10 12 23 21 27 10 5 26 13 35 17 10 5 20 19 23 32 3 13 12
26 20 30 46 21 55 29 60 50 7 30 28 37 120 39 103 3 120 8 120 37 0 13 8 27
18 32 9 5 91 10 182 11 169 3 200 9 200 40 0 32 25 42 97 41 124 -3 121 -4
140 38 13 27 25 38 45 40 16 2 28 11 31 23 10 37 8 339 -2 358 -6 10 -24 21
-41 24 -23 5 -30 12 -30 31 0 47 49 44 -727 46 -53 0 -63 3 -68 20 -9 30 2 56
26 57 27 2 49 21 49 42 0 24 20 41 47 41 17 0 24 8 31 32 4 17 16 35 25 40 9
4 25 12 35 17 12 6 18 24 22 69 6 74 9 78 61 81 19 1 20 6 17 72 -2 56 -7 74
-20 80 -10 5 -26 13 -35 18 -14 6 -19 23 -21 67 -2 32 -8 64 -14 71 -7 9 -57
12 -196 10 l-187 -2 -3 -25 c-6 -40 -21 -50 -76 -50 -56 0 -82 -13 -88 -45 -2
-11 -19 -27 -38 -36 -20 -10 -37 -26 -40 -39 -3 -13 -13 -27 -23 -32 -9 -4
-25 -12 -34 -17 -10 -4 -20 -17 -22 -27 -7 -39 -50 -60 -67 -33 -8 13 -13 141
-14 377 l0 172 -189 0 c-139 0 -191 -3 -199 -12z m132 -1921 c28 -20 15 -65
-21 -69 -14 -2 -29 -10 -33 -18 -21 -45 -29 -55 -50 -60 -13 -3 -27 -13 -32
-23 -4 -9 -12 -25 -17 -34 -4 -10 -16 -19 -25 -21 -13 -3 -16 2 -11 20 6 30
15 75 20 112 2 15 7 37 10 47 6 19 4 20 -45 23 -23 2 -14 20 12 26 53 13 173
11 192 -3z m-374 -382 c6 -8 9 -23 5 -36 -10 -29 -13 -50 -14 -76 -1 -28 -34
-63 -59 -63 -54 0 -66 52 -36 151 10 34 82 51 104 24z m516 -112 c-9 -36 -41
-63 -75 -63 l-26 0 25 13 c14 7 26 21 28 32 5 27 21 45 39 45 11 0 14 -7 9
-27z"/>
<path d="M4395 3515 c-34 -33 -36 -109 -3 -126 28 -15 75 -14 105 2 41 22 52
110 17 136 -30 22 -92 16 -119 -12z"/>
<path d="M4660 3515 c-4 -11 -10 -36 -13 -55 -3 -19 -10 -60 -16 -90 -6 -30
-13 -71 -15 -90 -3 -19 -6 -36 -7 -37 -1 -2 -2 -11 -3 -20 -2 -15 -16 -93 -21
-113 -1 -3 -5 -30 -10 -60 -21 -131 -1 -164 100 -165 75 0 93 12 96 65 3 52 0
60 -16 54 -17 -7 -48 14 -40 26 3 5 8 30 11 56 3 27 7 51 9 54 2 4 7 29 11 56
6 49 9 66 19 114 2 14 7 39 10 55 3 17 7 41 10 55 3 14 8 45 11 70 l6 45 -67
1 c-59 0 -68 -3 -75 -21z"/>
<path d="M4929 3525 c0 -5 -2 -17 -4 -25 -2 -8 -6 -33 -10 -55 -3 -22 -8 -47
-10 -55 -2 -8 -7 -31 -10 -50 -3 -19 -17 -100 -31 -180 -37 -210 -36 -242 12
-265 39 -18 129 -14 150 7 8 8 16 33 18 56 3 35 0 42 -15 43 -51 4 -50 -12
-18 167 11 62 22 127 24 143 2 17 6 42 10 57 11 52 15 77 21 122 l6 46 -71 0
c-42 0 -71 -5 -72 -11z"/>
<path d="M1930 3502 c-14 -2 -28 -7 -32 -11 -4 -3 -23 -51 -42 -106 -62 -176
-77 -220 -86 -240 -5 -11 -24 -65 -43 -120 -20 -55 -38 -107 -42 -116 -5 -15
4 -16 77 -15 l82 1 21 65 20 65 60 0 c33 0 65 -3 71 -7 7 -5 10 -30 7 -67 l-5
-59 82 0 81 0 -3 305 -3 306 -110 1 c-60 0 -121 -1 -135 -2z m103 -255 c-2
-56 -6 -104 -8 -106 -5 -4 -96 -3 -101 1 -2 2 11 49 28 105 25 83 35 103 52
106 12 1 24 2 28 0 3 -2 4 -49 1 -106z"/>
<path d="M5330 3312 c-113 -13 -176 -53 -202 -128 -35 -98 -41 -208 -14 -248
23 -35 57 -48 138 -52 131 -6 202 34 232 133 7 20 4 22 -46 21 -29 0 -57 1
-63 2 -20 5 -36 0 -30 -9 7 -13 -27 -31 -59 -31 -35 0 -58 51 -33 76 3 4 63 7
132 7 106 1 125 3 126 16 0 9 3 37 5 64 6 58 -16 109 -53 126 -34 16 -101 27
-133 23z m31 -129 c9 -8 15 -22 12 -31 -3 -14 -16 -18 -59 -18 -30 0 -54 3
-54 8 0 16 46 55 65 55 11 0 27 -6 36 -14z"/>
<path d="M2492 3285 c-37 -21 -42 -22 -40 -7 3 14 -7 17 -64 19 l-66 1 -8 -51
c-4 -29 -8 -54 -9 -57 -3 -15 -18 -97 -20 -110 -1 -8 -4 -28 -8 -45 -4 -16 -9
-50 -13 -75 -3 -25 -6 -49 -7 -55 -2 -13 130 -17 138 -5 3 5 8 23 10 40 2 16
8 53 14 82 6 29 13 67 14 83 5 45 24 74 52 81 51 13 59 -13 39 -116 -18 -90
-16 -127 8 -155 28 -31 90 -42 146 -24 34 11 44 32 39 84 -2 24 -7 30 -27 30
-27 0 -30 12 -17 90 18 113 19 136 8 164 -24 56 -115 69 -189 26z"/>
<path d="M3826 3283 c-3 -10 -12 -58 -21 -108 -8 -49 -18 -103 -21 -120 -22
-114 2 -163 83 -169 16 -2 34 -5 39 -9 13 -8 87 26 114 53 21 21 22 21 27 1
12 -45 96 -65 157 -36 32 16 34 19 33 63 -2 43 -4 47 -27 47 -22 0 -25 4 -23
35 1 19 4 49 8 65 3 17 6 37 6 45 1 8 5 31 9 50 5 19 11 50 13 68 l5 32 -72 0
-72 0 -12 -61 c-6 -34 -9 -66 -6 -70 3 -5 1 -9 -4 -9 -5 0 -9 -6 -9 -12 -1
-44 -16 -115 -27 -126 -18 -19 -73 -23 -87 -6 -13 16 -9 66 15 189 9 44 16 83
16 86 0 4 -31 7 -69 8 -59 1 -70 -1 -75 -16z"/>
<path d="M4341 3248 c-22 -112 -43 -234 -45 -263 -4 -35 17 -81 42 -93 29 -15
129 -9 148 9 20 21 25 105 5 101 -22 -5 -50 8 -46 21 2 7 6 28 9 47 3 19 12
73 21 120 8 47 15 91 15 98 0 8 -21 12 -69 12 l-70 0 -10 -52z"/>
</g>
</svg>
